# xmcd
#
# Track frame offsets: 
#        150
#        16254
#        37766
#        57566
#        78941
#        87003
#        97928
#        124753
#        142628
#        159390
#        183228
#        193503
#        220890
#        243428
#        272290
#        288078
#        299904
#        322678
#
# Disc length: 4469 seconds
#
# Revision: 0
# Processed by: cddbd v1.4PL0 Copyright (c) Steve Scherf et al.
# Submitted via: ExactAudioCopy v0.90b4
#
DISCID=e5117312
DTITLE=Van Morrison - Unplugged In The Studio
DYEAR=1971
DGENRE=Celtic
TTITLE0=The Way Young Lovers Do
TTITLE1=Ballerina
TTITLE2=And I Stoned Me
TTITLE3=Caravan
TTITLE4=Come Running
TTITLE5=These Dreams Of You
TTITLE6=Brand New Day
TTITLE7=Domino
TTITLE8=If I Ever Needed Someone
TTITLE9=Wild Night
TTITLE10=When The Evening Sun Goes Down
TTITLE11=Nobody Really Knows
TTITLE12=Bit By Bit
TTITLE13=Hey, Where Are You ?
TTITLE14=I Need Your Kind Of Loving
TTITLE15=Lorna
TTITLE16=Rock And Roll Band
TTITLE17=Funny Face
EXTD=
EXTT0=
EXTT1=
EXTT2=
EXTT3=
EXTT4=
EXTT5=
EXTT6=
EXTT7=
EXTT8=
EXTT9=
EXTT10=
EXTT11=
EXTT12=
EXTT13=
EXTT14=
EXTT15=
EXTT16=
EXTT17=
PLAYORDER=
